<svg version="1" xmlns="http://www.w3.org/2000/svg" width="96" height="96" viewBox="0 0 72.000000 72.000000"><path d="M24.6 1.3l-2.9 1.3L35 12c17.3 12.4 15.9 11.7 15 7.2-.5-2-1.1-6.4-1.5-9.8-.4-3.3-1.1-6.7-1.5-7.5C45.8 0 28.7-.5 24.6 1.3zM50 6.3c.5 2.3 1 6 1.3 8.2 1.4 10 2.9 19.1 3.3 20.4.5 1.4 12.4-14.4 12.4-16.5 0-2.9-8.8-11.7-14.6-14.7l-3.1-1.6.7 4.2zM15.5 5.8c-1.7 1-4.5 3.5-6.2 5.6C5.8 15.3 1.5 23 2.7 23c3 0 33.3-6.5 33.1-7.1C35.4 14.9 20.2 4 19.2 4c-.4 0-2.1.8-3.7 1.8zM17.5 22c-3.9.8-5.3 1.1-12.7 2.5C2 25 1 25.8.5 27.8c-1 4.1-.3 15.4 1.3 19.4L3.3 51l9.2-13.8c5-7.5 9.5-14.3 9.9-15 .8-1.3.8-1.3-4.9-.2zM65.8 25.2C60.1 32.8 49 49.4 49.4 49.7c.2.2 1.4-.1 2.8-.6s4.1-1.2 6.1-1.5c5.3-.8 11.8-2.4 12.3-2.9 1.8-1.8.6-19.7-1.6-22-.4-.5-1.9.6-3.2 2.5zM10.1 43.9l-6 8.9 2.8 3.9c4.3 6 14.3 13.5 15.8 12 .3-.3-.5-5.5-1.6-11.6-2.2-11.2-3.4-18.6-3.4-20.9-.1-2.7-1.9-.8-7.6 7.7zM23.1 58.3c1 5.6 1.9 10.5 1.9 10.9 0 2.6 16 3 22 .6l3.2-1.3L36.9 59c-7.3-5.2-13.8-9.8-14.4-10.2-.9-.5-.7 2.1.6 9.5zM58 50c-4.1 1-11 2.6-15.3 3.5L35 55.2l8.1 5.9c4.5 3.2 8.7 5.9 9.4 5.9 1.5 0 7.5-4.5 10.3-7.8C65 56.7 69 49.8 69 48.5c0-.8-2.9-.4-11 1.5z"/></svg>